<svg width="355" height="294" viewBox="0 0 355 294" fill="none" xmlns="http://www.w3.org/2000/svg">
<path d="M232.736 37.2837C233.462 35.7943 232.844 33.9949 231.338 33.305C206.178 21.7825 177.864 18.9597 150.877 25.3349C122.916 31.9403 98.0993 48.0132 80.6364 70.8281C63.1735 93.643 54.1389 121.795 55.0646 150.512C55.9581 178.227 66.0769 204.821 83.7698 226.099C84.8292 227.373 86.7275 227.499 87.9756 226.409L94.1416 221.026C95.3896 219.936 95.5144 218.043 94.459 216.766C78.917 197.957 70.0307 174.498 69.2427 150.055C68.4224 124.61 76.4277 99.6655 91.9008 79.4501C107.374 59.2347 129.363 44.9931 154.138 39.1404C177.939 33.5179 202.905 35.9697 225.12 46.0604C226.629 46.7456 228.423 46.1309 229.149 44.6416L232.736 37.2837Z" fill="white" fill-opacity="0.21"/>
<path d="M269.625 227.985C270.854 229.096 272.754 229.003 273.835 227.747C288.852 210.312 298.756 189.038 302.419 166.281C306.24 142.535 303.101 118.191 293.383 96.1912C283.664 74.1912 267.781 55.4772 247.654 42.3112C227.527 29.1452 204.017 22.0909 179.966 22.0009C155.915 21.9109 132.353 28.7891 112.128 41.8041C91.9025 54.8192 75.88 73.4138 65.9969 95.3404C56.1139 117.267 52.7934 141.587 56.4368 165.36C59.9287 188.144 69.6735 209.492 84.5594 227.039C85.6312 228.302 87.5307 228.41 88.768 227.308L124.452 195.527C125.689 194.425 125.794 192.532 124.745 191.25C116.757 181.476 111.519 169.726 109.601 157.212C107.532 143.709 109.418 129.896 115.031 117.442C120.645 104.988 129.745 94.426 141.233 87.0336C152.721 79.6411 166.104 75.7344 179.765 75.7855C193.425 75.8366 206.779 79.8434 218.211 87.3216C229.643 94.7998 238.664 105.429 244.184 117.925C249.705 130.421 251.487 144.248 249.317 157.735C247.305 170.234 241.979 181.944 233.918 191.658C232.86 192.933 232.95 194.826 234.179 195.938L269.625 227.985Z" fill="white" fill-opacity="0.1"/>
<path d="M275.961 72.625C277.276 71.6176 277.529 69.7321 276.49 68.4413C266.637 56.1983 254.549 45.9241 240.858 38.17C226.298 29.9227 210.224 24.6955 193.597 22.8007C176.97 20.9059 160.132 22.3824 144.089 27.142C128.046 31.9016 113.127 39.8466 100.224 50.5022C87.3209 61.1578 76.6982 74.3053 68.9909 89.159C61.2836 104.013 56.6499 120.268 55.3666 136.953C54.0833 153.638 56.1769 170.41 61.5221 186.268C66.5477 201.177 74.3508 214.99 84.5098 226.981C85.5809 228.245 87.4801 228.353 88.7181 227.252L94.834 221.812C96.072 220.711 96.1795 218.817 95.1124 217.549C86.2184 206.986 79.381 194.839 74.9644 181.737C70.2282 167.686 68.3732 152.824 69.5103 138.04C70.6473 123.257 74.7531 108.854 81.5823 95.6924C88.4114 82.5311 97.8237 70.8816 109.257 61.4401C120.69 51.9986 133.909 44.9589 148.124 40.7416C162.339 36.5243 177.259 35.216 191.991 36.8949C206.723 38.5738 220.965 43.2054 233.867 50.513C245.898 57.3274 256.533 66.3384 265.224 77.0693C266.267 78.3568 268.147 78.6093 269.462 77.6019L275.961 72.625Z" fill="url(#paint0_linear)"/>
<path d="M269.625 227.985C270.854 229.096 272.754 229.003 273.835 227.747C285.976 213.65 294.812 197.001 299.678 179.018C304.544 161.035 305.309 142.201 301.933 123.906C301.632 122.276 300.038 121.238 298.416 121.577L290.405 123.257C288.783 123.596 287.749 125.186 288.044 126.816C290.965 142.922 290.267 159.489 285.985 175.313C281.704 191.137 273.953 205.795 263.309 218.231C262.232 219.49 262.324 221.384 263.553 222.495L269.625 227.985Z" fill="#FF4040" fill-opacity="0.63"/>
<path d="M232.666 194.617C241.829 184.482 247.873 171.918 250.073 158.433C252.274 144.948 250.536 131.115 245.07 118.593C239.603 106.071 230.639 95.3925 219.254 87.8384C207.869 80.2843 194.546 76.1757 180.884 76.0055C167.222 75.8353 153.801 79.6108 142.231 86.879C130.662 94.1471 121.435 104.599 115.658 116.981C109.881 129.363 107.8 143.149 109.664 156.684C111.527 170.22 117.257 182.93 126.165 193.29L127.43 192.202C118.731 182.086 113.137 169.674 111.317 156.457C109.497 143.239 111.529 129.778 117.17 117.687C122.811 105.596 131.821 95.3893 143.119 88.292C154.417 81.1947 167.523 77.5079 180.864 77.6741C194.205 77.8403 207.214 81.8523 218.332 89.2289C229.449 96.6054 238.202 107.033 243.54 119.261C248.878 131.488 250.575 144.997 248.426 158.164C246.278 171.332 240.376 183.601 231.428 193.497L232.666 194.617Z" fill="url(#paint1_radial)"/>
<path d="M124.121 182.519C123.754 182.753 123.266 182.644 123.038 182.275C116.772 172.157 113.314 160.552 113.02 148.655C113.01 148.22 113.358 147.863 113.793 147.857C114.228 147.852 114.584 148.2 114.595 148.635C114.885 160.239 118.258 171.559 124.367 181.43C124.595 181.8 124.488 182.286 124.121 182.519Z" fill="url(#paint2_linear)"/>
<path d="M104.23 221.18C106.3 221.18 107.578 219.83 107.578 217.652V211.784C107.578 209.588 106.3 208.22 104.23 208.22C102.196 208.22 100.9 209.588 100.9 211.784V217.652C100.9 219.83 102.196 221.18 104.23 221.18ZM104.23 219.542C103.186 219.542 102.592 218.858 102.592 217.652V211.784C102.592 210.542 103.186 209.858 104.23 209.858C105.292 209.858 105.886 210.542 105.886 211.784V217.652C105.886 218.858 105.292 219.542 104.23 219.542Z" fill="white"/>
<path d="M79.504 176H86.002V174.38H81.304C81.304 171.572 85.912 169.664 85.912 166.262C85.912 164.678 84.814 163.202 82.726 163.202C80.872 163.202 79.702 164.444 79.594 166.586H81.268C81.304 165.434 81.862 164.84 82.744 164.84C83.698 164.84 84.184 165.524 84.184 166.316C84.184 168.926 79.504 170.654 79.504 174.794V176ZM90.8062 176.18C92.8762 176.18 94.1542 174.83 94.1542 172.652V166.784C94.1542 164.588 92.8762 163.22 90.8062 163.22C88.7722 163.22 87.4762 164.588 87.4762 166.784V172.652C87.4762 174.83 88.7722 176.18 90.8062 176.18ZM90.8062 174.542C89.7622 174.542 89.1682 173.858 89.1682 172.652V166.784C89.1682 165.542 89.7622 164.858 90.8062 164.858C91.8682 164.858 92.4622 165.542 92.4622 166.784V172.652C92.4622 173.858 91.8682 174.542 90.8062 174.542Z" fill="white"/>
<path d="M86.74 125.266H85.336V120.838H83.824L83.644 125.266H81.088L83.518 117.4H81.772L79.162 125.932V126.868H83.626V130H85.336V126.868H86.74V125.266ZM90.9995 130.18C93.0695 130.18 94.3475 128.83 94.3475 126.652V120.784C94.3475 118.588 93.0695 117.22 90.9995 117.22C88.9655 117.22 87.6695 118.588 87.6695 120.784V126.652C87.6695 128.83 88.9655 130.18 90.9995 130.18ZM90.9995 128.542C89.9555 128.542 89.3615 127.858 89.3615 126.652V120.784C89.3615 119.542 89.9555 118.858 90.9995 118.858C92.0615 118.858 92.6555 119.542 92.6555 120.784V126.652C92.6555 127.858 92.0615 128.542 90.9995 128.542Z" fill="white"/>
<path d="M104.374 86.738C103.69 86.738 103.078 86.972 102.664 87.368V85.442C102.664 84.434 103.258 83.894 104.104 83.894C104.896 83.894 105.436 84.452 105.508 85.424H107.272C107.164 83.462 105.904 82.202 104.104 82.202C102.232 82.202 100.9 83.48 100.9 85.478V91.886C100.9 93.902 102.268 95.198 104.122 95.198C105.976 95.198 107.344 93.902 107.344 91.886V89.888C107.344 88.016 106.03 86.738 104.374 86.738ZM105.58 91.868C105.58 92.93 104.968 93.506 104.122 93.506C103.276 93.506 102.664 92.93 102.664 91.868V89.996C102.664 88.952 103.258 88.358 104.086 88.358C104.95 88.358 105.58 88.952 105.58 89.978V91.868ZM112.246 95.18C114.316 95.18 115.594 93.83 115.594 91.652V85.784C115.594 83.588 114.316 82.22 112.246 82.22C110.212 82.22 108.916 83.588 108.916 85.784V91.652C108.916 93.83 110.212 95.18 112.246 95.18ZM112.246 93.542C111.202 93.542 110.608 92.858 110.608 91.652V85.784C110.608 84.542 111.202 83.858 112.246 83.858C113.308 83.858 113.902 84.542 113.902 85.784V91.652C113.902 92.858 113.308 93.542 112.246 93.542Z" fill="white"/>
<path d="M134.138 60.43C134.876 59.836 135.326 58.9 135.326 57.838V57.55C135.326 55.498 134.102 54.202 132.158 54.202C130.214 54.202 128.99 55.498 128.99 57.55V57.838C128.99 58.9 129.44 59.854 130.16 60.43C129.296 60.97 128.774 61.996 128.774 63.202V63.634C128.774 65.866 130.088 67.198 132.158 67.198C134.228 67.198 135.542 65.866 135.542 63.634V63.202C135.542 61.996 135.02 60.97 134.138 60.43ZM130.7 57.604C130.7 56.47 131.24 55.894 132.158 55.894C133.076 55.894 133.616 56.47 133.616 57.604V57.874C133.616 59.062 133.076 59.692 132.158 59.692C131.24 59.692 130.7 59.062 130.7 57.874V57.604ZM133.814 63.634C133.814 64.858 133.202 65.488 132.158 65.488C131.114 65.488 130.502 64.858 130.502 63.634V63.202C130.502 61.978 131.114 61.33 132.158 61.33C133.202 61.33 133.814 61.978 133.814 63.202V63.634ZM140.544 67.18C142.614 67.18 143.892 65.83 143.892 63.652V57.784C143.892 55.588 142.614 54.22 140.544 54.22C138.51 54.22 137.214 55.588 137.214 57.784V63.652C137.214 65.83 138.51 67.18 140.544 67.18ZM140.544 65.542C139.5 65.542 138.906 64.858 138.906 63.652V57.784C138.906 56.542 139.5 55.858 140.544 55.858C141.606 55.858 142.2 56.542 142.2 57.784V63.652C142.2 64.858 141.606 65.542 140.544 65.542Z" fill="white"/>
<path d="M170.79 50.4L168.45 52.11V54.09L170.34 52.758V62.946H172.086V50.4H170.79ZM177.574 63.18C179.644 63.18 180.922 61.83 180.922 59.652V53.784C180.922 51.588 179.644 50.22 177.574 50.22C175.54 50.22 174.244 51.588 174.244 53.784V59.652C174.244 61.83 175.54 63.18 177.574 63.18ZM177.574 61.542C176.53 61.542 175.936 60.858 175.936 59.652V53.784C175.936 52.542 176.53 51.858 177.574 51.858C178.636 51.858 179.23 52.542 179.23 53.784V59.652C179.23 60.858 178.636 61.542 177.574 61.542ZM186.046 63.18C188.116 63.18 189.394 61.83 189.394 59.652V53.784C189.394 51.588 188.116 50.22 186.046 50.22C184.012 50.22 182.716 51.588 182.716 53.784V59.652C182.716 61.83 184.012 63.18 186.046 63.18ZM186.046 61.542C185.002 61.542 184.408 60.858 184.408 59.652V53.784C184.408 52.542 185.002 51.858 186.046 51.858C187.108 51.858 187.702 52.542 187.702 53.784V59.652C187.702 60.858 187.108 61.542 186.046 61.542Z" fill="white"/>
<path d="M214.79 54.4L212.45 56.11V58.09L214.34 56.758V66.946H216.086V54.4H214.79ZM217.848 67H224.346V65.38H219.648C219.648 62.572 224.256 60.664 224.256 57.262C224.256 55.678 223.158 54.202 221.07 54.202C219.216 54.202 218.046 55.444 217.938 57.586H219.612C219.648 56.434 220.206 55.84 221.088 55.84C222.042 55.84 222.528 56.524 222.528 57.316C222.528 59.926 217.848 61.654 217.848 65.794V67ZM229.15 67.18C231.22 67.18 232.498 65.83 232.498 63.652V57.784C232.498 55.588 231.22 54.22 229.15 54.22C227.116 54.22 225.82 55.588 225.82 57.784V63.652C225.82 65.83 227.116 67.18 229.15 67.18ZM229.15 65.542C228.106 65.542 227.512 64.858 227.512 63.652V57.784C227.512 56.542 228.106 55.858 229.15 55.858C230.212 55.858 230.806 56.542 230.806 57.784V63.652C230.806 64.858 230.212 65.542 229.15 65.542Z" fill="white"/>
<path d="M247.79 82.4L245.45 84.11V86.09L247.34 84.758V94.946H249.086V82.4H247.79ZM258.084 90.266H256.68V85.838H255.168L254.988 90.266H252.432L254.862 82.4H253.116L250.506 90.932V91.868H254.97V95H256.68V91.868H258.084V90.266ZM262.343 95.18C264.413 95.18 265.691 93.83 265.691 91.652V85.784C265.691 83.588 264.413 82.22 262.343 82.22C260.309 82.22 259.013 83.588 259.013 85.784V91.652C259.013 93.83 260.309 95.18 262.343 95.18ZM262.343 93.542C261.299 93.542 260.705 92.858 260.705 91.652V85.784C260.705 84.542 261.299 83.858 262.343 83.858C263.405 83.858 263.999 84.542 263.999 85.784V91.652C263.999 92.858 263.405 93.542 262.343 93.542Z" fill="white"/>
<path d="M264.79 117.4L262.45 119.11V121.09L264.34 119.758V129.946H266.086V117.4H264.79ZM271.718 121.738C271.034 121.738 270.422 121.972 270.008 122.368V120.442C270.008 119.434 270.602 118.894 271.448 118.894C272.24 118.894 272.78 119.452 272.852 120.424H274.616C274.508 118.462 273.248 117.202 271.448 117.202C269.576 117.202 268.244 118.48 268.244 120.478V126.886C268.244 128.902 269.612 130.198 271.466 130.198C273.32 130.198 274.688 128.902 274.688 126.886V124.888C274.688 123.016 273.374 121.738 271.718 121.738ZM272.924 126.868C272.924 127.93 272.312 128.506 271.466 128.506C270.62 128.506 270.008 127.93 270.008 126.868V124.996C270.008 123.952 270.602 123.358 271.43 123.358C272.294 123.358 272.924 123.952 272.924 124.978V126.868ZM279.589 130.18C281.659 130.18 282.937 128.83 282.937 126.652V120.784C282.937 118.588 281.659 117.22 279.589 117.22C277.555 117.22 276.259 118.588 276.259 120.784V126.652C276.259 128.83 277.555 130.18 279.589 130.18ZM279.589 128.542C278.545 128.542 277.951 127.858 277.951 126.652V120.784C277.951 119.542 278.545 118.858 279.589 118.858C280.651 118.858 281.245 119.542 281.245 120.784V126.652C281.245 127.858 280.651 128.542 279.589 128.542Z" fill="white"/>
<path d="M260.79 163.4L258.45 165.11V167.09L260.34 165.758V175.946H262.086V163.4H260.79ZM269.482 169.43C270.22 168.836 270.67 167.9 270.67 166.838V166.55C270.67 164.498 269.446 163.202 267.502 163.202C265.558 163.202 264.334 164.498 264.334 166.55V166.838C264.334 167.9 264.784 168.854 265.504 169.43C264.64 169.97 264.118 170.996 264.118 172.202V172.634C264.118 174.866 265.432 176.198 267.502 176.198C269.572 176.198 270.886 174.866 270.886 172.634V172.202C270.886 170.996 270.364 169.97 269.482 169.43ZM266.044 166.604C266.044 165.47 266.584 164.894 267.502 164.894C268.42 164.894 268.96 165.47 268.96 166.604V166.874C268.96 168.062 268.42 168.692 267.502 168.692C266.584 168.692 266.044 168.062 266.044 166.874V166.604ZM269.158 172.634C269.158 173.858 268.546 174.488 267.502 174.488C266.458 174.488 265.846 173.858 265.846 172.634V172.202C265.846 170.978 266.458 170.33 267.502 170.33C268.546 170.33 269.158 170.978 269.158 172.202V172.634ZM275.888 176.18C277.958 176.18 279.236 174.83 279.236 172.652V166.784C279.236 164.588 277.958 163.22 275.888 163.22C273.854 163.22 272.558 164.588 272.558 166.784V172.652C272.558 174.83 273.854 176.18 275.888 176.18ZM275.888 174.542C274.844 174.542 274.25 173.858 274.25 172.652V166.784C274.25 165.542 274.844 164.858 275.888 164.858C276.95 164.858 277.544 165.542 277.544 166.784V172.652C277.544 173.858 276.95 174.542 275.888 174.542Z" fill="white"/>
<path d="M237.504 221H244.002V219.38H239.304C239.304 216.572 243.912 214.664 243.912 211.262C243.912 209.678 242.814 208.202 240.726 208.202C238.872 208.202 237.702 209.444 237.594 211.586H239.268C239.304 210.434 239.862 209.84 240.744 209.84C241.698 209.84 242.184 210.524 242.184 211.316C242.184 213.926 237.504 215.654 237.504 219.794V221ZM248.806 221.18C250.876 221.18 252.154 219.83 252.154 217.652V211.784C252.154 209.588 250.876 208.22 248.806 208.22C246.772 208.22 245.476 209.588 245.476 211.784V217.652C245.476 219.83 246.772 221.18 248.806 221.18ZM248.806 219.542C247.762 219.542 247.168 218.858 247.168 217.652V211.784C247.168 210.542 247.762 209.858 248.806 209.858C249.868 209.858 250.462 210.542 250.462 211.784V217.652C250.462 218.858 249.868 219.542 248.806 219.542ZM257.279 221.18C259.349 221.18 260.627 219.83 260.627 217.652V211.784C260.627 209.588 259.349 208.22 257.279 208.22C255.245 208.22 253.949 209.588 253.949 211.784V217.652C253.949 219.83 255.245 221.18 257.279 221.18ZM257.279 219.542C256.235 219.542 255.641 218.858 255.641 217.652V211.784C255.641 210.542 256.235 209.858 257.279 209.858C258.341 209.858 258.935 210.542 258.935 211.784V217.652C258.935 218.858 258.341 219.542 257.279 219.542Z" fill="white"/>
<g filter="url(#filter0_d)">
<path d="M76.8757 176.333C76.7305 175.791 77.0291 175.229 77.5596 175.046L111.846 163.207C112.928 162.834 114.101 163.442 114.42 164.54L115.257 167.424C115.583 168.548 114.878 169.711 113.73 169.942L78.1195 177.105C77.5663 177.216 77.0218 176.878 76.8757 176.333Z" fill="url(#paint3_linear)"/>
</g>
<rect width="2.85724" height="10.0003" rx="1.42862" transform="matrix(-1 0 0 1 180.904 24)" fill="white"/>
<rect width="2.85724" height="10.0003" rx="1.42862" transform="matrix(-0.888217 0.459425 0.459425 0.888217 126.385 35.4485)" fill="white"/>
<rect width="2.85724" height="10.0003" rx="1.42862" transform="matrix(-0.887705 -0.460413 -0.460413 0.887705 235.32 36.7766)" fill="white"/>
<rect width="2.85724" height="10.0003" rx="1.42862" transform="matrix(-0.616385 -0.787445 -0.787445 0.616385 277.958 72.6442)" fill="white"/>
<rect width="2.85724" height="10.0003" rx="1.42862" transform="matrix(-0.224088 -0.974569 -0.974569 0.224088 301.285 123.274)" fill="white"/>
<rect width="2.85724" height="10.0003" rx="1.42862" transform="matrix(0.289881 -0.957063 -0.957063 -0.289881 298.651 181.06)" fill="white"/>
<rect width="2.85724" height="10.0003" rx="1.42862" transform="matrix(0.674061 -0.738676 -0.738676 -0.674061 270.41 230)" fill="white"/>
<rect width="2.85724" height="10.0003" rx="1.42862" transform="matrix(0.605446 -0.795887 -0.795887 -0.605446 84.8853 82.3306)" fill="white"/>
<rect width="2.85724" height="10.0003" rx="1.42862" transform="matrix(0.170479 -0.985361 -0.985361 -0.170479 67.5688 124.128)" fill="white"/>
<rect width="2.85724" height="10.0003" rx="1.42862" transform="matrix(-0.263837 -0.964567 -0.964567 0.263837 69.4756 176.628)" fill="white"/>
<rect width="2.85724" height="10.0003" rx="1.42862" transform="matrix(-0.664986 -0.746856 -0.746856 0.664986 95.061 221.681)" fill="white"/>
<path d="M156.04 159.64C163.4 159.64 167.944 154.84 167.944 147.096V126.232C167.944 118.424 163.4 113.56 156.04 113.56C148.808 113.56 144.2 118.424 144.2 126.232V147.096C144.2 154.84 148.808 159.64 156.04 159.64ZM156.04 153.816C152.328 153.816 150.216 151.384 150.216 147.096V126.232C150.216 121.816 152.328 119.384 156.04 119.384C159.816 119.384 161.928 121.816 161.928 126.232V147.096C161.928 151.384 159.816 153.816 156.04 153.816Z" fill="white" fill-opacity="0.43"/>
<path d="M181.045 114.2L172.725 120.28V127.32L179.445 122.584V158.808H185.653V114.2H181.045ZM203.949 113.496C197.357 113.496 192.493 118.104 192.493 125.272V132.376C192.493 139.032 197.165 143.576 203.053 143.576C205.485 143.576 207.661 142.744 209.133 141.336V148.184C209.133 151.768 207.021 153.688 204.013 153.688C201.197 153.688 199.277 151.704 199.021 148.248H192.749C193.133 155.224 197.613 159.704 204.013 159.704C210.669 159.704 215.405 155.16 215.405 148.056V125.272C215.405 118.104 210.541 113.496 203.949 113.496ZM204.077 137.816C201.005 137.816 198.765 135.704 198.765 132.056V125.336C198.765 121.56 200.941 119.512 203.949 119.512C206.957 119.512 209.133 121.56 209.133 125.336V131.992C209.133 135.704 207.021 137.816 204.077 137.816Z" fill="white"/>
<path d="M166.966 178H169.054L164.932 170.89L168.532 165.4H166.408L163.888 169.396L163.06 170.872V165.4H161.26V178H163.06V173.734L163.888 172.492L166.966 178ZM178.252 165.4L176.128 170.512C175.84 171.232 175.408 172.438 175.21 173.014H175.138C174.94 172.438 174.508 171.232 174.22 170.512L172.096 165.4H170.242V178H172.024V173.086C171.988 171.646 171.934 170.332 171.88 169.018L171.952 168.982C172.312 169.99 172.744 171.142 173.176 172.294L174.274 175.156H176.074L177.172 172.294C177.604 171.142 178.036 169.99 178.396 168.982L178.468 169.018C178.396 170.332 178.36 171.646 178.324 173.086V178H180.106V165.4H178.252ZM187.315 163.366L181.501 180.142H183.067L188.863 163.366H187.315ZM195.101 165.4V170.764H191.537V165.4H189.719V178H191.537V172.474H195.101V178H196.919V165.4H195.101Z" fill="white" fill-opacity="0.38"/>
<rect x="126" y="208" width="30" height="30" rx="4" fill="white" fill-opacity="0.12"/>
<path d="M143.366 216.513C143.312 216.216 143.053 216 142.751 216C137.926 216 134.001 219.364 134.001 223.5C134.001 227.635 137.926 231 142.751 231C143.053 231 143.312 230.784 143.366 230.486L143.43 230.133C144.194 225.64 144.193 221.174 143.429 216.859L143.366 216.513Z" fill="#FFFF00"/>
<path d="M144.928 220.286L148.053 222.161C148.154 222.221 148.265 222.25 148.374 222.25C148.587 222.25 148.794 222.142 148.911 221.946C149.088 221.651 148.992 221.266 148.696 221.089L145.571 219.214C145.275 219.036 144.891 219.133 144.714 219.428C144.536 219.724 144.632 220.108 144.928 220.286Z" fill="#FFFF00"/>
<path d="M148.696 224.839L145.571 222.964C145.274 222.786 144.891 222.883 144.714 223.178C144.536 223.474 144.632 223.858 144.928 224.036L148.053 225.911C148.154 225.971 148.265 226 148.374 226C148.586 226 148.793 225.892 148.911 225.696C149.088 225.4 148.992 225.016 148.696 224.839Z" fill="#FFFF00"/>
<path d="M148.696 228.589L145.571 226.714C145.274 226.536 144.891 226.633 144.714 226.928C144.536 227.224 144.632 227.608 144.928 227.786L148.053 229.661C148.154 229.721 148.265 229.75 148.374 229.75C148.586 229.75 148.793 229.642 148.911 229.446C149.088 229.15 148.992 228.766 148.696 228.589Z" fill="#FFFF00"/>
<rect x="163" y="208" width="30" height="30" rx="4" fill="white" fill-opacity="0.12"/>
<g clip-path="url(#clip0)">
<path d="M185.801 223.231L184.118 221.954C183.966 221.838 183.762 221.818 183.591 221.904C183.42 221.988 183.312 222.163 183.312 222.354V223.136H182.814V222.345C182.814 222.068 182.589 221.843 182.311 221.843H181.311V219.977C181.311 219.699 181.086 219.474 180.808 219.474H179.245V218.941H179.666C179.944 218.941 180.169 218.716 180.169 218.438C180.169 218.16 179.944 217.936 179.666 217.936H176.42C176.142 217.936 175.917 218.16 175.917 218.438C175.917 218.716 176.142 218.941 176.42 218.941H176.841V219.474H174.898C174.62 219.474 174.395 219.699 174.395 219.977V220.958H173.414C173.136 220.958 172.911 221.183 172.911 221.46V222.61H172.005V221.184C172.005 220.906 171.78 220.681 171.502 220.681C171.225 220.681 171 220.906 171 221.184V226.44C171 226.718 171.225 226.943 171.503 226.943C171.78 226.943 172.005 226.718 172.005 226.44V225.014H172.912V226.193C172.912 226.47 173.137 226.695 173.414 226.695H174.678L176.451 228.879C176.546 228.996 176.69 229.064 176.841 229.064H182.311C182.589 229.064 182.814 228.839 182.814 228.562V227.898H183.312V228.562C183.312 228.758 183.426 228.936 183.604 229.018C183.671 229.049 183.743 229.064 183.814 229.064C183.932 229.064 184.048 229.023 184.141 228.943L185.825 227.501C185.936 227.405 186 227.266 186 227.119V223.632C186 223.475 185.926 223.326 185.801 223.231Z" fill="white"/>
</g>
<rect x="200" y="208" width="30" height="30" rx="4" fill="white" fill-opacity="0.12"/>
<g clip-path="url(#clip1)">
<path d="M212.337 223.159C212.093 222.914 211.697 222.914 211.453 223.159L209.663 224.948C209.546 225.065 209.48 225.224 209.48 225.39C209.48 225.556 209.546 225.714 209.663 225.832L209.742 225.911L208.189 227.428C208.069 227.545 208.001 227.704 208 227.872C207.999 228.039 208.065 228.199 208.183 228.317L210.683 230.817C210.801 230.934 210.959 231 211.125 231H211.129C211.296 230.999 211.456 230.932 211.573 230.812L213.09 229.258L213.169 229.337C213.286 229.454 213.445 229.52 213.611 229.52C213.776 229.52 213.935 229.454 214.053 229.337L215.842 227.547C216.086 227.303 216.086 226.908 215.842 226.664L212.337 223.159ZM211.12 229.486L209.514 227.881L210.626 226.794L212.206 228.374L211.12 229.486Z" fill="white"/>
<path d="M209.379 220.756C209.405 220.79 209.434 220.82 209.466 220.848C209.575 220.943 209.717 221 209.874 221H209.875H211.75C212.095 221 212.375 220.72 212.375 220.375C212.375 220.03 212.095 219.75 211.75 219.75H211.384L212.817 218.317C213.061 218.073 213.061 217.678 212.817 217.433C212.573 217.189 212.178 217.189 211.933 217.433L210.5 218.866V218.5C210.5 218.155 210.22 217.875 209.875 217.875C209.53 217.875 209.25 218.155 209.25 218.5V220.371C209.25 220.387 209.25 220.403 209.251 220.419C209.261 220.546 209.306 220.661 209.379 220.756Z" fill="white"/>
<path d="M221.613 226.235C221.588 226.204 221.561 226.175 221.531 226.15C221.422 226.057 221.282 226.001 221.128 226H221.127H221.125H219.25C218.905 226 218.625 226.28 218.625 226.625C218.625 226.97 218.905 227.25 219.25 227.25H219.875L218.75 228.75C218.543 229.026 218.599 229.418 218.875 229.625C218.988 229.71 219.119 229.75 219.25 229.75C219.44 229.75 219.627 229.664 219.75 229.5L220.5 228.5C220.5 228.845 220.78 229.125 221.125 229.125C221.47 229.125 221.75 228.845 221.75 228.5V226.627C221.75 226.62 221.75 226.613 221.75 226.605C221.745 226.465 221.695 226.337 221.613 226.235Z" fill="white"/>
<path d="M222.817 218.683L220.317 216.183C220.199 216.065 220.025 216 219.872 216C219.705 216.001 219.545 216.069 219.429 216.188L218.013 217.634C217.378 217.102 216.432 217.128 215.836 217.723L214.57 218.989C214.557 219.003 214.552 219.02 214.54 219.034C214.51 219.071 214.485 219.109 214.463 219.151C214.449 219.179 214.435 219.207 214.425 219.237C214.411 219.28 214.404 219.323 214.4 219.368C214.397 219.399 214.392 219.43 214.394 219.461C214.395 219.506 214.407 219.549 214.419 219.593C214.427 219.624 214.432 219.656 214.446 219.686C214.45 219.694 214.449 219.703 214.454 219.711L214.804 220.412C214.893 220.59 214.859 220.804 214.717 220.946L213.954 221.709C213.517 222.146 213.517 222.858 213.954 223.294L215.706 225.047C215.917 225.259 216.199 225.375 216.499 225.375C216.798 225.375 217.079 225.259 217.291 225.047L218.055 224.283C218.196 224.142 218.411 224.108 218.589 224.196L219.289 224.547C219.297 224.551 219.306 224.551 219.315 224.554C219.345 224.568 219.376 224.573 219.407 224.581C219.452 224.593 219.494 224.605 219.539 224.607C219.549 224.608 219.559 224.613 219.569 224.613C219.591 224.613 219.611 224.603 219.632 224.601C219.677 224.596 219.721 224.589 219.764 224.575C219.794 224.565 219.821 224.552 219.849 224.537C219.891 224.516 219.929 224.49 219.966 224.459C219.981 224.448 219.998 224.443 220.011 224.429L221.277 223.164C221.872 222.568 221.898 221.623 221.366 220.988L222.812 219.572C222.932 219.455 222.999 219.296 223 219.129C223 218.961 222.935 218.801 222.817 218.683ZM220.393 222.28L219.596 223.078C219.576 223.054 219.557 223.029 219.539 223.004C219.467 222.909 219.397 222.81 219.33 222.707C219.302 222.664 219.274 222.623 219.247 222.579C219.156 222.432 219.067 222.279 218.983 222.113C218.779 221.716 218.468 221.303 218.083 220.917C217.698 220.532 217.284 220.221 216.887 220.018C216.722 219.933 216.569 219.844 216.422 219.754C216.377 219.726 216.335 219.698 216.293 219.67C216.189 219.602 216.089 219.532 215.994 219.46C215.97 219.442 215.946 219.423 215.922 219.405L216.72 218.608C216.863 218.465 217.095 218.464 217.239 218.608L220.393 221.762C220.535 221.904 220.536 222.137 220.393 222.28Z" fill="white"/>
</g>
<path d="M152 166.955V175.045C152 175.413 151.786 175.748 151.451 175.907C151.318 175.968 151.176 176 151.035 176C150.818 176 150.603 175.927 150.429 175.788L145.359 171.743C145.132 171.562 145 171.289 145 171C145 170.711 145.132 170.438 145.359 170.257L150.429 166.211C150.718 165.98 151.116 165.935 151.452 166.093C151.786 166.252 152 166.587 152 166.955Z" fill="white"/>
<path d="M207 166.955V175.045C207 175.413 207.214 175.748 207.549 175.907C207.682 175.968 207.824 176 207.965 176C208.182 176 208.397 175.927 208.571 175.788L213.641 171.743C213.868 171.562 214 171.289 214 171C214 170.711 213.868 170.438 213.641 170.257L208.571 166.211C208.282 165.98 207.884 165.935 207.548 166.093C207.214 166.252 207 166.587 207 166.955Z" fill="#FFFF00"/>
<path d="M287.815 243.575C289.044 244.686 290.943 244.592 292.029 243.341C310.185 222.417 322.073 196.771 326.291 169.35C330.509 141.929 326.879 113.895 315.851 88.4825C315.191 86.9626 313.407 86.3023 311.901 86.9928L306.322 89.5506C304.815 90.241 304.158 92.0207 304.814 93.5418C314.855 116.796 318.151 142.43 314.294 167.504C310.437 192.579 299.589 216.037 283.024 235.198C281.94 236.452 282.033 238.347 283.262 239.458L287.815 243.575Z" fill="white" fill-opacity="0.13"/>
<path d="M70.4437 244.245C69.6244 244.986 68.3583 244.923 67.6287 244.094C48.8858 222.788 36.7002 196.5 32.5656 168.397C28.431 140.295 32.5288 111.611 44.3411 85.8094C44.8008 84.8051 45.9951 84.3801 46.9931 84.8535L54.3457 88.3414C55.3437 88.8148 55.7674 90.0073 55.3088 91.0121C44.5247 114.644 40.7891 140.903 44.5743 166.63C48.3595 192.358 59.4997 216.428 76.6332 235.953C77.3618 236.783 77.2995 238.047 76.4802 238.787L70.4437 244.245Z" fill="white" fill-opacity="0.31"/>
<path d="M288.556 244.245C289.376 244.986 290.641 244.923 291.371 244.094C299.293 235.089 306.083 225.147 311.59 214.492C312.097 213.511 311.695 212.309 310.707 211.815L303.428 208.178C302.44 207.684 301.24 208.085 300.731 209.066C295.718 218.737 289.552 227.765 282.367 235.953C281.638 236.783 281.701 238.047 282.52 238.787L288.556 244.245Z" fill="#FFFF00"/>
<path d="M312.417 208.274C313.418 208.741 314.61 208.308 315.063 207.301C319.978 196.373 323.538 184.886 325.665 173.095C325.861 172.008 325.124 170.977 324.034 170.796L316.007 169.46C314.917 169.279 313.888 170.016 313.691 171.102C311.746 181.809 308.512 192.241 304.061 202.171C303.609 203.179 304.041 204.368 305.042 204.835L312.417 208.274Z" fill="#FFFF00"/>
<path d="M324.631 166.875C325.725 167.027 326.737 166.263 326.873 165.167C328.354 153.277 328.375 141.25 326.937 129.355C326.805 128.259 325.796 127.491 324.702 127.638L316.636 128.725C315.542 128.872 314.775 129.879 314.907 130.976C316.2 141.781 316.18 152.703 314.849 163.503C314.713 164.599 315.476 165.609 316.57 165.76L324.631 166.875Z" fill="white" fill-opacity="0.23"/>
<path d="M324.206 124.262C325.297 124.089 326.042 123.064 325.854 121.975C323.815 110.169 320.339 98.6554 315.505 87.6921C315.059 86.6814 313.871 86.24 312.867 86.6993L305.466 90.0836C304.461 90.543 304.021 91.7291 304.465 92.7403C308.843 102.703 312 113.158 313.865 123.879C314.055 124.967 315.078 125.712 316.169 125.538L324.206 124.262Z" fill="white" fill-opacity="0.23"/>
<path d="M70.4437 244.245C69.6244 244.986 68.3584 244.923 67.6288 244.094C50.6831 224.831 39.0658 201.458 33.9485 176.294C28.8311 151.13 30.3971 125.077 38.4734 100.725C38.8212 99.6769 39.962 99.1246 41.0056 99.4865L48.6942 102.153C49.7379 102.515 50.2889 103.654 49.9425 104.703C42.5782 126.999 41.1592 150.843 45.843 173.875C50.5268 196.908 61.146 218.304 76.6333 235.953C77.3619 236.783 77.2995 238.047 76.4802 238.787L70.4437 244.245Z" fill="#FFFF00"/>
<path d="M334.138 238.43C334.876 237.836 335.326 236.9 335.326 235.838V235.55C335.326 233.498 334.102 232.202 332.158 232.202C330.214 232.202 328.99 233.498 328.99 235.55V235.838C328.99 236.9 329.44 237.854 330.16 238.43C329.296 238.97 328.774 239.996 328.774 241.202V241.634C328.774 243.866 330.088 245.198 332.158 245.198C334.228 245.198 335.542 243.866 335.542 241.634V241.202C335.542 239.996 335.02 238.97 334.138 238.43ZM330.7 235.604C330.7 234.47 331.24 233.894 332.158 233.894C333.076 233.894 333.616 234.47 333.616 235.604V235.874C333.616 237.062 333.076 237.692 332.158 237.692C331.24 237.692 330.7 237.062 330.7 235.874V235.604ZM333.814 241.634C333.814 242.858 333.202 243.488 332.158 243.488C331.114 243.488 330.502 242.858 330.502 241.634V241.202C330.502 239.978 331.114 239.33 332.158 239.33C333.202 239.33 333.814 239.978 333.814 241.202V241.634ZM340.598 236.45C339.968 236.45 339.428 236.648 339.014 236.954V233.966H343.046V232.4H337.268V239.312H338.978C339.158 238.502 339.626 238.106 340.364 238.106C341.264 238.106 341.678 238.646 341.678 240.014V241.328C341.678 242.966 341.192 243.506 340.328 243.506C339.446 243.506 338.978 243.002 338.924 241.796H337.16C337.232 243.938 338.42 245.198 340.328 245.198C342.254 245.198 343.442 243.902 343.442 241.31V240.032C343.442 237.728 342.29 236.45 340.598 236.45ZM346.047 237.98C347.109 237.98 347.865 237.296 347.865 236.018V234.2C347.865 232.922 347.109 232.22 346.047 232.22C344.949 232.22 344.193 232.922 344.193 234.2V236.018C344.193 237.296 344.949 237.98 346.047 237.98ZM344.391 245H345.723L354.147 232.4H352.833L344.391 245ZM346.047 236.936C345.615 236.936 345.345 236.702 345.345 236.036V234.182C345.345 233.498 345.615 233.264 346.047 233.264C346.461 233.264 346.713 233.498 346.713 234.182V236.036C346.713 236.702 346.461 236.936 346.047 236.936ZM352.383 245.162C353.445 245.162 354.201 244.478 354.201 243.2V241.364C354.201 240.086 353.445 239.384 352.383 239.384C351.285 239.384 350.529 240.086 350.529 241.364V243.2C350.529 244.478 351.285 245.162 352.383 245.162ZM352.383 244.1C351.951 244.1 351.699 243.866 351.699 243.218V241.346C351.699 240.68 351.951 240.446 352.383 240.446C352.797 240.446 353.049 240.68 353.049 241.346V243.218C353.049 243.866 352.797 244.1 352.383 244.1Z" fill="white"/>
<g clip-path="url(#clip2)">
<path d="M322.974 233.264C322.951 233.099 322.836 232.962 322.678 232.909C322.521 232.856 322.346 232.897 322.228 233.015L321.607 233.637C321.275 233.969 320.696 233.969 320.364 233.637C320.02 233.293 320.02 232.737 320.364 232.394L320.985 231.772C321.103 231.655 321.144 231.481 321.091 231.323C321.038 231.165 320.901 231.05 320.736 231.027C319.916 230.911 319.086 231.186 318.499 231.772C317.836 232.436 317.574 233.412 317.817 234.319L311.319 240.817L311.319 240.816C310.414 240.576 309.433 240.838 308.772 241.499C308.189 242.082 307.91 242.919 308.026 243.737C308.049 243.901 308.164 244.039 308.322 244.092C308.479 244.144 308.654 244.103 308.772 243.986L309.393 243.364C309.725 243.032 310.304 243.032 310.636 243.364C310.98 243.707 310.98 244.263 310.636 244.607L310.015 245.228C309.897 245.346 309.856 245.52 309.909 245.678C309.962 245.836 310.099 245.95 310.264 245.974C311.082 246.09 311.905 245.824 312.501 245.228C313.164 244.564 313.426 243.589 313.183 242.681L319.681 236.184L319.681 236.184C320.59 236.425 321.567 236.162 322.228 235.501C322.811 234.918 323.09 234.082 322.974 233.264Z" fill="white"/>
<path d="M320.363 240.727C320.155 240.727 319.941 240.758 319.69 240.824L317.986 239.121L316.122 240.986L317.825 242.689C317.758 242.941 317.727 243.155 317.727 243.363C317.727 244.817 318.909 246 320.363 246C321.817 246 323 244.817 323 243.363C323 241.909 321.817 240.727 320.363 240.727ZM321.805 243.275L321.544 244.25C321.503 244.402 321.385 244.52 321.233 244.561L320.258 244.822C320.115 244.862 319.95 244.824 319.834 244.709L319.12 243.995C319.009 243.884 318.966 243.722 319.007 243.571L319.268 242.596C319.309 242.444 319.427 242.326 319.579 242.285L320.554 242.024C320.704 241.981 320.866 242.026 320.978 242.137L321.692 242.851C321.803 242.962 321.846 243.124 321.805 243.275Z" fill="white"/>
<path d="M313.184 234.294C313.426 233.387 313.164 232.41 312.501 231.747C311.505 230.751 309.767 230.751 308.772 231.747C307.744 232.775 307.744 234.448 308.772 235.476C309.432 236.136 310.41 236.402 311.319 236.158L313.015 237.878L314.88 236.014L313.184 234.294ZM312.034 233.479L311.773 234.454C311.732 234.606 311.614 234.724 311.462 234.765L310.487 235.026C310.344 235.066 310.178 235.028 310.063 234.913L309.349 234.199C309.238 234.088 309.195 233.926 309.235 233.774L309.497 232.799C309.537 232.648 309.656 232.53 309.807 232.489L310.782 232.227C310.934 232.186 311.096 232.23 311.207 232.341L311.921 233.055C312.032 233.166 312.075 233.328 312.034 233.479Z" fill="white"/>
</g>
<path d="M27.74 240.266H26.336V235.838H24.824L24.644 240.266H22.088L24.518 232.4H22.772L20.162 240.932V241.868H24.626V245H26.336V241.868H27.74V240.266ZM32.0535 236.45C31.4235 236.45 30.8835 236.648 30.4695 236.954V233.966H34.5015V232.4H28.7235V239.312H30.4335C30.6135 238.502 31.0815 238.106 31.8195 238.106C32.7195 238.106 33.1335 238.646 33.1335 240.014V241.328C33.1335 242.966 32.6475 243.506 31.7835 243.506C30.9015 243.506 30.4335 243.002 30.3795 241.796H28.6155C28.6875 243.938 29.8755 245.198 31.7835 245.198C33.7095 245.198 34.8975 243.902 34.8975 241.31V240.032C34.8975 237.728 33.7455 236.45 32.0535 236.45ZM38.5643 243.272V232.4H36.7463V245H42.7403V243.272H38.5643Z" fill="white"/>
<path d="M13.7667 234.525L13.7792 234.512L10.675 231.417L9.79168 232.3L11.55 234.058C10.7667 234.358 10.2083 235.113 10.2083 236C10.2083 237.15 11.1416 238.083 12.2916 238.083C12.5875 238.083 12.8708 238.021 13.125 237.908V243.917C13.125 244.375 12.75 244.75 12.2917 244.75C11.8334 244.75 11.4584 244.375 11.4584 243.917V240.167C11.4584 239.246 10.7125 238.5 9.79168 238.5H8.95836V232.667C8.95832 231.746 8.2125 231 7.29168 231H2.29168C1.37082 231 0.625 231.746 0.625 232.667V246H8.95832V239.75H10.2083V243.917C10.2083 245.067 11.1416 246 12.2916 246C13.4416 246 14.375 245.067 14.375 243.917V236C14.375 235.425 14.1417 234.904 13.7667 234.525ZM7.29168 236.833H2.29168V232.667H7.29168V236.833ZM12.2917 236.833C11.8334 236.833 11.4584 236.458 11.4584 236C11.4584 235.542 11.8334 235.167 12.2917 235.167C12.75 235.167 13.125 235.542 13.125 236C13.125 236.458 12.75 236.833 12.2917 236.833Z" fill="white"/>
<defs>
<filter id="filter0_d" x="72.8389" y="159.097" width="46.4977" height="22.0288" filterUnits="userSpaceOnUse" color-interpolation-filters="sRGB">
<feFlood flood-opacity="0" result="BackgroundImageFix"/>
<feColorMatrix in="SourceAlpha" type="matrix" values="0 0 0 0 0 0 0 0 0 0 0 0 0 0 0 0 0 0 127 0"/>
<feOffset/>
<feGaussianBlur stdDeviation="2"/>
<feColorMatrix type="matrix" values="0 0 0 0 1 0 0 0 0 1 0 0 0 0 0 0 0 0 1 0"/>
<feBlend mode="normal" in2="BackgroundImageFix" result="effect1_dropShadow"/>
<feBlend mode="normal" in="SourceGraphic" in2="effect1_dropShadow" result="shape"/>
</filter>
<linearGradient id="paint0_linear" x1="65" y1="170" x2="50" y2="200" gradientUnits="userSpaceOnUse">
<stop stop-color="white" stop-opacity="0.13"/>
<stop offset="0.907437" stop-color="#FFFF00"/>
</linearGradient>
<radialGradient id="paint1_radial" cx="0" cy="0" r="1" gradientUnits="userSpaceOnUse" gradientTransform="translate(180 196.5) rotate(-90) scale(99.5)">
<stop stop-color="white"/>
<stop offset="1" stop-color="white" stop-opacity="0"/>
</radialGradient>
<linearGradient id="paint2_linear" x1="115.5" y1="161" x2="118" y2="171" gradientUnits="userSpaceOnUse">
<stop stop-color="#FFFF00" stop-opacity="0.68"/>
<stop offset="0.526042" stop-color="#FFFF00" stop-opacity="0.85"/>
<stop offset="1" stop-color="#FFFF00" stop-opacity="0.6"/>
</linearGradient>
<linearGradient id="paint3_linear" x1="79.9802" y1="175.783" x2="114.582" y2="165.75" gradientUnits="userSpaceOnUse">
<stop stop-color="#FFFF00"/>
<stop offset="1" stop-color="#FFFF00" stop-opacity="0.68"/>
</linearGradient>
<clipPath id="clip0">
<rect width="15" height="15" fill="white" transform="translate(171 216)"/>
</clipPath>
<clipPath id="clip1">
<rect width="15" height="15" fill="white" transform="translate(208 216)"/>
</clipPath>
<clipPath id="clip2">
<rect width="15" height="15" fill="white" transform="translate(308 231)"/>
</clipPath>
</defs>
</svg>
