<svg width="249" height="208" viewBox="0 0 249 208" fill="none" xmlns="http://www.w3.org/2000/svg">
<path d="M177.736 15.2837C178.462 13.7943 177.844 11.9949 176.338 11.305C151.178 -0.217466 122.864 -3.04027 95.877 3.33492C67.9156 9.94028 43.0993 26.0132 25.6364 48.8281C8.17349 71.643 -0.861113 99.7955 0.0646467 128.512C0.958148 156.227 11.0769 182.821 28.7698 204.099C29.8292 205.373 31.7275 205.499 32.9756 204.409L39.1416 199.026C40.3896 197.936 40.5144 196.043 39.459 194.766C23.917 175.957 15.0307 152.498 14.2427 128.055C13.4224 102.61 21.4277 77.6655 36.9008 57.4501C52.374 37.2347 74.3628 22.9931 99.1383 17.1404C122.939 11.5179 147.905 13.9697 170.12 24.0604C171.629 24.7456 173.423 24.1309 174.149 22.6416L177.736 15.2837Z" fill="white" fill-opacity="0.21"/>
<path d="M214.625 205.985C215.854 207.096 217.754 207.003 218.835 205.747C233.852 188.312 243.756 167.038 247.419 144.281C251.24 120.535 248.101 96.1911 238.383 74.1912C228.664 52.1912 212.781 33.4772 192.654 20.3112C172.527 7.14521 149.017 0.0908599 124.966 0.000871462C100.915 -0.089117 77.3529 6.78911 57.1277 19.8041C36.9025 32.8192 20.88 51.4138 10.9969 73.3404C1.11389 95.267 -2.2066 119.587 1.43685 143.36C4.92865 166.144 14.6735 187.492 29.5594 205.039C30.6312 206.302 32.5307 206.41 33.768 205.308L69.4522 173.527C70.6894 172.425 70.7937 170.532 69.7452 169.25C61.7572 159.476 56.5188 147.726 54.6011 135.212C52.5316 121.709 54.4177 107.896 60.0311 95.4417C65.6446 82.9876 74.7453 72.426 86.2331 65.0336C97.7208 57.6411 111.104 53.7344 124.765 53.7855C138.425 53.8366 151.779 57.8434 163.211 65.3216C174.643 72.7998 183.664 83.4292 189.184 95.925C194.705 108.421 196.487 122.248 194.317 135.735C192.305 148.234 186.979 159.944 178.918 169.658C177.86 170.933 177.95 172.826 179.179 173.938L214.625 205.985Z" fill="white" fill-opacity="0.1"/>
<path d="M220.961 50.625C222.276 49.6176 222.529 47.7321 221.49 46.4413C211.637 34.1983 199.549 23.9241 185.858 16.17C171.298 7.92269 155.224 2.69546 138.597 0.800666C121.97 -1.09413 105.132 0.382392 89.0893 5.142C73.0462 9.9016 58.1273 17.8466 45.2241 28.5022C32.3209 39.1578 21.6982 52.3053 13.9909 67.159C6.28363 82.0127 1.64989 98.2677 0.366612 114.953C-0.916663 131.638 1.17687 148.41 6.52209 164.268C11.5477 179.177 19.3508 192.99 29.5098 204.981C30.5809 206.245 32.4801 206.353 33.7181 205.252L39.834 199.812C41.072 198.711 41.1795 196.817 40.1124 195.549C31.2184 184.986 24.381 172.839 19.9644 159.737C15.2282 145.686 13.3732 130.824 14.5103 116.04C15.6473 101.257 19.7531 86.8536 26.5823 73.6924C33.4114 60.5311 42.8237 48.8816 54.2567 39.4401C65.6898 29.9986 78.9088 22.9589 93.124 18.7416C107.339 14.5243 122.259 13.216 136.991 14.8949C151.723 16.5738 165.965 21.2054 178.867 28.513C190.898 35.3274 201.533 44.3384 210.224 55.0693C211.267 56.3568 213.147 56.6093 214.462 55.6019L220.961 50.625Z" fill="url(#paint0_linear)"/>
<path d="M214.625 205.985C215.854 207.096 217.754 207.003 218.835 205.747C230.976 191.65 239.812 175.001 244.678 157.018C249.544 139.035 250.309 120.201 246.933 101.906C246.632 100.276 245.038 99.2376 243.416 99.5775L235.405 101.257C233.783 101.596 232.749 103.186 233.044 104.816C235.965 120.922 235.267 137.489 230.985 153.313C226.704 169.137 218.953 183.795 208.309 196.231C207.232 197.49 207.324 199.384 208.553 200.495L214.625 205.985Z" fill="#FF4040" fill-opacity="0.63"/>
<path d="M177.666 172.617C186.829 162.482 192.873 149.918 195.073 136.433C197.274 122.948 195.536 109.115 190.07 96.5931C184.603 84.0711 175.639 73.3925 164.254 65.8384C152.869 58.2843 139.546 54.1757 125.884 54.0055C112.222 53.8353 98.8011 57.6108 87.2315 64.879C75.6618 72.1471 66.435 82.5992 60.6582 94.9811C54.8814 107.363 52.7999 121.149 54.6636 134.684C56.5272 148.22 62.2567 160.93 71.1648 171.29L72.4301 170.202C63.7314 160.086 58.1365 147.674 56.3167 134.457C54.4969 121.239 56.5294 107.778 62.1704 95.6866C67.8115 83.5958 76.8214 73.3893 88.1191 66.292C99.4169 59.1947 112.523 55.5079 125.864 55.6741C139.205 55.8403 152.214 59.8523 163.332 67.2289C174.449 74.6054 183.202 85.0331 188.54 97.2607C193.878 109.488 195.575 122.997 193.426 136.164C191.278 149.332 185.376 161.601 176.428 171.497L177.666 172.617Z" fill="url(#paint1_radial)"/>
<path d="M49.23 199.18C51.3 199.18 52.578 197.83 52.578 195.652V189.784C52.578 187.588 51.3 186.22 49.23 186.22C47.196 186.22 45.9 187.588 45.9 189.784V195.652C45.9 197.83 47.196 199.18 49.23 199.18ZM49.23 197.542C48.186 197.542 47.592 196.858 47.592 195.652V189.784C47.592 188.542 48.186 187.858 49.23 187.858C50.292 187.858 50.886 188.542 50.886 189.784V195.652C50.886 196.858 50.292 197.542 49.23 197.542Z" fill="white"/>
<path d="M24.504 154H31.002V152.38H26.304C26.304 149.572 30.912 147.664 30.912 144.262C30.912 142.678 29.814 141.202 27.726 141.202C25.872 141.202 24.702 142.444 24.594 144.586H26.268C26.304 143.434 26.862 142.84 27.744 142.84C28.698 142.84 29.184 143.524 29.184 144.316C29.184 146.926 24.504 148.654 24.504 152.794V154ZM35.8062 154.18C37.8762 154.18 39.1542 152.83 39.1542 150.652V144.784C39.1542 142.588 37.8762 141.22 35.8062 141.22C33.7722 141.22 32.4762 142.588 32.4762 144.784V150.652C32.4762 152.83 33.7722 154.18 35.8062 154.18ZM35.8062 152.542C34.7622 152.542 34.1682 151.858 34.1682 150.652V144.784C34.1682 143.542 34.7622 142.858 35.8062 142.858C36.8682 142.858 37.4622 143.542 37.4622 144.784V150.652C37.4622 151.858 36.8682 152.542 35.8062 152.542Z" fill="white"/>
<path d="M31.74 103.266H30.336V98.838H28.824L28.644 103.266H26.088L28.518 95.4H26.772L24.162 103.932V104.868H28.626V108H30.336V104.868H31.74V103.266ZM35.9995 108.18C38.0695 108.18 39.3475 106.83 39.3475 104.652V98.784C39.3475 96.588 38.0695 95.22 35.9995 95.22C33.9655 95.22 32.6695 96.588 32.6695 98.784V104.652C32.6695 106.83 33.9655 108.18 35.9995 108.18ZM35.9995 106.542C34.9555 106.542 34.3615 105.858 34.3615 104.652V98.784C34.3615 97.542 34.9555 96.858 35.9995 96.858C37.0615 96.858 37.6555 97.542 37.6555 98.784V104.652C37.6555 105.858 37.0615 106.542 35.9995 106.542Z" fill="white"/>
<path d="M49.374 64.738C48.69 64.738 48.078 64.972 47.664 65.368V63.442C47.664 62.434 48.258 61.894 49.104 61.894C49.896 61.894 50.436 62.452 50.508 63.424H52.272C52.164 61.462 50.904 60.202 49.104 60.202C47.232 60.202 45.9 61.48 45.9 63.478V69.886C45.9 71.902 47.268 73.198 49.122 73.198C50.976 73.198 52.344 71.902 52.344 69.886V67.888C52.344 66.016 51.03 64.738 49.374 64.738ZM50.58 69.868C50.58 70.93 49.968 71.506 49.122 71.506C48.276 71.506 47.664 70.93 47.664 69.868V67.996C47.664 66.952 48.258 66.358 49.086 66.358C49.95 66.358 50.58 66.952 50.58 67.978V69.868ZM57.2456 73.18C59.3156 73.18 60.5936 71.83 60.5936 69.652V63.784C60.5936 61.588 59.3156 60.22 57.2456 60.22C55.2116 60.22 53.9156 61.588 53.9156 63.784V69.652C53.9156 71.83 55.2116 73.18 57.2456 73.18ZM57.2456 71.542C56.2016 71.542 55.6076 70.858 55.6076 69.652V63.784C55.6076 62.542 56.2016 61.858 57.2456 61.858C58.3076 61.858 58.9016 62.542 58.9016 63.784V69.652C58.9016 70.858 58.3076 71.542 57.2456 71.542Z" fill="white"/>
<path d="M79.138 38.43C79.876 37.836 80.326 36.9 80.326 35.838V35.55C80.326 33.498 79.102 32.202 77.158 32.202C75.214 32.202 73.99 33.498 73.99 35.55V35.838C73.99 36.9 74.44 37.854 75.16 38.43C74.296 38.97 73.774 39.996 73.774 41.202V41.634C73.774 43.866 75.088 45.198 77.158 45.198C79.228 45.198 80.542 43.866 80.542 41.634V41.202C80.542 39.996 80.02 38.97 79.138 38.43ZM75.7 35.604C75.7 34.47 76.24 33.894 77.158 33.894C78.076 33.894 78.616 34.47 78.616 35.604V35.874C78.616 37.062 78.076 37.692 77.158 37.692C76.24 37.692 75.7 37.062 75.7 35.874V35.604ZM78.814 41.634C78.814 42.858 78.202 43.488 77.158 43.488C76.114 43.488 75.502 42.858 75.502 41.634V41.202C75.502 39.978 76.114 39.33 77.158 39.33C78.202 39.33 78.814 39.978 78.814 41.202V41.634ZM85.5445 45.18C87.6145 45.18 88.8925 43.83 88.8925 41.652V35.784C88.8925 33.588 87.6145 32.22 85.5445 32.22C83.5105 32.22 82.2145 33.588 82.2145 35.784V41.652C82.2145 43.83 83.5105 45.18 85.5445 45.18ZM85.5445 43.542C84.5005 43.542 83.9065 42.858 83.9065 41.652V35.784C83.9065 34.542 84.5005 33.858 85.5445 33.858C86.6065 33.858 87.2005 34.542 87.2005 35.784V41.652C87.2005 42.858 86.6065 43.542 85.5445 43.542Z" fill="white"/>
<path d="M115.79 28.4L113.45 30.11V32.09L115.34 30.758V40.946H117.086V28.4H115.79ZM122.574 41.18C124.644 41.18 125.922 39.83 125.922 37.652V31.784C125.922 29.588 124.644 28.22 122.574 28.22C120.54 28.22 119.244 29.588 119.244 31.784V37.652C119.244 39.83 120.54 41.18 122.574 41.18ZM122.574 39.542C121.53 39.542 120.936 38.858 120.936 37.652V31.784C120.936 30.542 121.53 29.858 122.574 29.858C123.636 29.858 124.23 30.542 124.23 31.784V37.652C124.23 38.858 123.636 39.542 122.574 39.542ZM131.046 41.18C133.116 41.18 134.394 39.83 134.394 37.652V31.784C134.394 29.588 133.116 28.22 131.046 28.22C129.012 28.22 127.716 29.588 127.716 31.784V37.652C127.716 39.83 129.012 41.18 131.046 41.18ZM131.046 39.542C130.002 39.542 129.408 38.858 129.408 37.652V31.784C129.408 30.542 130.002 29.858 131.046 29.858C132.108 29.858 132.702 30.542 132.702 31.784V37.652C132.702 38.858 132.108 39.542 131.046 39.542Z" fill="white"/>
<path d="M159.79 32.4L157.45 34.11V36.09L159.34 34.758V44.946H161.086V32.4H159.79ZM162.848 45H169.346V43.38H164.648C164.648 40.572 169.256 38.664 169.256 35.262C169.256 33.678 168.158 32.202 166.07 32.202C164.216 32.202 163.046 33.444 162.938 35.586H164.612C164.648 34.434 165.206 33.84 166.088 33.84C167.042 33.84 167.528 34.524 167.528 35.316C167.528 37.926 162.848 39.654 162.848 43.794V45ZM174.15 45.18C176.22 45.18 177.498 43.83 177.498 41.652V35.784C177.498 33.588 176.22 32.22 174.15 32.22C172.116 32.22 170.82 33.588 170.82 35.784V41.652C170.82 43.83 172.116 45.18 174.15 45.18ZM174.15 43.542C173.106 43.542 172.512 42.858 172.512 41.652V35.784C172.512 34.542 173.106 33.858 174.15 33.858C175.212 33.858 175.806 34.542 175.806 35.784V41.652C175.806 42.858 175.212 43.542 174.15 43.542Z" fill="white"/>
<path d="M192.79 60.4L190.45 62.11V64.09L192.34 62.758V72.946H194.086V60.4H192.79ZM203.084 68.266H201.68V63.838H200.168L199.988 68.266H197.432L199.862 60.4H198.116L195.506 68.932V69.868H199.97V73H201.68V69.868H203.084V68.266ZM207.343 73.18C209.413 73.18 210.691 71.83 210.691 69.652V63.784C210.691 61.588 209.413 60.22 207.343 60.22C205.309 60.22 204.013 61.588 204.013 63.784V69.652C204.013 71.83 205.309 73.18 207.343 73.18ZM207.343 71.542C206.299 71.542 205.705 70.858 205.705 69.652V63.784C205.705 62.542 206.299 61.858 207.343 61.858C208.405 61.858 208.999 62.542 208.999 63.784V69.652C208.999 70.858 208.405 71.542 207.343 71.542Z" fill="white"/>
<path d="M209.79 95.4L207.45 97.11V99.09L209.34 97.758V107.946H211.086V95.4H209.79ZM216.718 99.738C216.034 99.738 215.422 99.972 215.008 100.368V98.442C215.008 97.434 215.602 96.894 216.448 96.894C217.24 96.894 217.78 97.452 217.852 98.424H219.616C219.508 96.462 218.248 95.202 216.448 95.202C214.576 95.202 213.244 96.48 213.244 98.478V104.886C213.244 106.902 214.612 108.198 216.466 108.198C218.32 108.198 219.688 106.902 219.688 104.886V102.888C219.688 101.016 218.374 99.738 216.718 99.738ZM217.924 104.868C217.924 105.93 217.312 106.506 216.466 106.506C215.62 106.506 215.008 105.93 215.008 104.868V102.996C215.008 101.952 215.602 101.358 216.43 101.358C217.294 101.358 217.924 101.952 217.924 102.978V104.868ZM224.589 108.18C226.659 108.18 227.937 106.83 227.937 104.652V98.784C227.937 96.588 226.659 95.22 224.589 95.22C222.555 95.22 221.259 96.588 221.259 98.784V104.652C221.259 106.83 222.555 108.18 224.589 108.18ZM224.589 106.542C223.545 106.542 222.951 105.858 222.951 104.652V98.784C222.951 97.542 223.545 96.858 224.589 96.858C225.651 96.858 226.245 97.542 226.245 98.784V104.652C226.245 105.858 225.651 106.542 224.589 106.542Z" fill="white"/>
<path d="M205.79 141.4L203.45 143.11V145.09L205.34 143.758V153.946H207.086V141.4H205.79ZM214.482 147.43C215.22 146.836 215.67 145.9 215.67 144.838V144.55C215.67 142.498 214.446 141.202 212.502 141.202C210.558 141.202 209.334 142.498 209.334 144.55V144.838C209.334 145.9 209.784 146.854 210.504 147.43C209.64 147.97 209.118 148.996 209.118 150.202V150.634C209.118 152.866 210.432 154.198 212.502 154.198C214.572 154.198 215.886 152.866 215.886 150.634V150.202C215.886 148.996 215.364 147.97 214.482 147.43ZM211.044 144.604C211.044 143.47 211.584 142.894 212.502 142.894C213.42 142.894 213.96 143.47 213.96 144.604V144.874C213.96 146.062 213.42 146.692 212.502 146.692C211.584 146.692 211.044 146.062 211.044 144.874V144.604ZM214.158 150.634C214.158 151.858 213.546 152.488 212.502 152.488C211.458 152.488 210.846 151.858 210.846 150.634V150.202C210.846 148.978 211.458 148.33 212.502 148.33C213.546 148.33 214.158 148.978 214.158 150.202V150.634ZM220.888 154.18C222.958 154.18 224.236 152.83 224.236 150.652V144.784C224.236 142.588 222.958 141.22 220.888 141.22C218.854 141.22 217.558 142.588 217.558 144.784V150.652C217.558 152.83 218.854 154.18 220.888 154.18ZM220.888 152.542C219.844 152.542 219.25 151.858 219.25 150.652V144.784C219.25 143.542 219.844 142.858 220.888 142.858C221.95 142.858 222.544 143.542 222.544 144.784V150.652C222.544 151.858 221.95 152.542 220.888 152.542Z" fill="white"/>
<path d="M182.504 199H189.002V197.38H184.304C184.304 194.572 188.912 192.664 188.912 189.262C188.912 187.678 187.814 186.202 185.726 186.202C183.872 186.202 182.702 187.444 182.594 189.586H184.268C184.304 188.434 184.862 187.84 185.744 187.84C186.698 187.84 187.184 188.524 187.184 189.316C187.184 191.926 182.504 193.654 182.504 197.794V199ZM193.806 199.18C195.876 199.18 197.154 197.83 197.154 195.652V189.784C197.154 187.588 195.876 186.22 193.806 186.22C191.772 186.22 190.476 187.588 190.476 189.784V195.652C190.476 197.83 191.772 199.18 193.806 199.18ZM193.806 197.542C192.762 197.542 192.168 196.858 192.168 195.652V189.784C192.168 188.542 192.762 187.858 193.806 187.858C194.868 187.858 195.462 188.542 195.462 189.784V195.652C195.462 196.858 194.868 197.542 193.806 197.542ZM202.279 199.18C204.349 199.18 205.627 197.83 205.627 195.652V189.784C205.627 187.588 204.349 186.22 202.279 186.22C200.245 186.22 198.949 187.588 198.949 189.784V195.652C198.949 197.83 200.245 199.18 202.279 199.18ZM202.279 197.542C201.235 197.542 200.641 196.858 200.641 195.652V189.784C200.641 188.542 201.235 187.858 202.279 187.858C203.341 187.858 203.935 188.542 203.935 189.784V195.652C203.935 196.858 203.341 197.542 202.279 197.542Z" fill="white"/>
<rect width="2.85724" height="10.0003" rx="1.42862" transform="matrix(-1 0 0 1 125.904 2)" fill="white"/>
<rect width="2.85724" height="10.0003" rx="1.42862" transform="matrix(-0.888217 0.459425 0.459425 0.888217 71.3848 13.4485)" fill="white"/>
<rect width="2.85724" height="10.0003" rx="1.42862" transform="matrix(-0.887705 -0.460413 -0.460413 0.887705 180.32 14.7766)" fill="white"/>
<rect width="2.85724" height="10.0003" rx="1.42862" transform="matrix(-0.616385 -0.787445 -0.787445 0.616385 222.958 50.6442)" fill="white"/>
<rect width="2.85724" height="10.0003" rx="1.42862" transform="matrix(-0.224088 -0.974569 -0.974569 0.224088 246.285 101.274)" fill="white"/>
<rect width="2.85724" height="10.0003" rx="1.42862" transform="matrix(0.289881 -0.957063 -0.957063 -0.289881 243.651 159.06)" fill="white"/>
<rect width="2.85724" height="10.0003" rx="1.42862" transform="matrix(0.674061 -0.738676 -0.738676 -0.674061 215.41 208)" fill="white"/>
<rect width="2.85724" height="10.0003" rx="1.42862" transform="matrix(0.605446 -0.795887 -0.795887 -0.605446 29.8853 60.3306)" fill="white"/>
<rect width="2.85724" height="10.0003" rx="1.42862" transform="matrix(0.170479 -0.985361 -0.985361 -0.170479 12.5688 102.128)" fill="white"/>
<rect width="2.85724" height="10.0003" rx="1.42862" transform="matrix(-0.263837 -0.964567 -0.964567 0.263837 14.4756 154.628)" fill="white"/>
<rect width="2.85724" height="10.0003" rx="1.42862" transform="matrix(-0.664986 -0.746856 -0.746856 0.664986 40.061 199.681)" fill="white"/>
<defs>
<linearGradient id="paint0_linear" x1="10" y1="148" x2="-5" y2="178" gradientUnits="userSpaceOnUse">
<stop stop-color="white" stop-opacity="0.13"/>
<stop offset="0.907437" stop-color="#FFFF00"/>
</linearGradient>
<radialGradient id="paint1_radial" cx="0" cy="0" r="1" gradientUnits="userSpaceOnUse" gradientTransform="translate(125 174.5) rotate(-90) scale(99.5)">
<stop stop-color="white"/>
<stop offset="1" stop-color="white" stop-opacity="0"/>
</radialGradient>
</defs>
</svg>
