<svg width="15" height="15" viewBox="0 0 15 15" fill="none" xmlns="http://www.w3.org/2000/svg">
    <path d="M13.7667 3.525L13.7792 3.5125L10.675 0.41668L9.79168 1.3L11.55 3.05832C10.7667 3.35832 10.2083 4.1125 10.2083 5C10.2083 6.15 11.1416 7.08332 12.2916 7.08332C12.5875 7.08332 12.8708 7.02082 13.125 6.90832V12.9166C13.125 13.375 12.75 13.75 12.2917 13.75C11.8334 13.75 11.4584 13.375 11.4584 12.9167V9.16668C11.4584 8.24586 10.7125 7.5 9.79168 7.5H8.95836V1.66668C8.95832 0.74582 8.2125 0 7.29168 0H2.29168C1.37082 0 0.625 0.74582 0.625 1.66668V15H8.95832V8.75H10.2083V12.9167C10.2083 14.0667 11.1416 15 12.2916 15C13.4416 15 14.375 14.0667 14.375 12.9167V5C14.375 4.425 14.1417 3.90418 13.7667 3.525ZM7.29168 5.83332H2.29168V1.66668H7.29168V5.83332ZM12.2917 5.83332C11.8334 5.83332 11.4584 5.45832 11.4584 5C11.4584 4.54168 11.8334 4.16668 12.2917 4.16668C12.75 4.16668 13.125 4.54168 13.125 5C13.125 5.45832 12.75 5.83332 12.2917 5.83332Z" fill="white"/>
</svg>
