<svg width="15" height="15" viewBox="0 0 15 15" fill="none" xmlns="http://www.w3.org/2000/svg">
    <path d="M14.9742 2.26378C14.9506 2.09898 14.836 1.96164 14.6781 1.90887C14.521 1.85567 14.3463 1.89727 14.2283 2.01487L13.6069 2.63673C13.2747 2.96889 12.6958 2.96889 12.3636 2.63673C12.0199 2.29301 12.0201 1.73737 12.3636 1.39389L12.985 0.772477C13.1026 0.654879 13.1438 0.48065 13.091 0.322711C13.0382 0.164771 12.9009 0.0501914 12.7361 0.0266074C11.916 -0.0892618 11.086 0.186246 10.4994 0.772037C9.83592 1.43593 9.57412 2.41184 9.81658 3.31949L3.31912 9.81672L3.31868 9.81628C2.41446 9.57639 1.43299 9.83816 0.771668 10.4995C0.188866 11.0823 -0.0900699 11.9187 0.0257993 12.7366C0.0494125 12.9014 0.163993 13.0388 0.321903 13.0916C0.478553 13.1443 0.653631 13.1032 0.771668 12.9856L1.39308 12.3637C1.72525 12.0315 2.30419 12.0315 2.63636 12.3637C2.98007 12.7074 2.97989 13.263 2.63636 13.6065L2.01494 14.2279C1.89734 14.3455 1.85615 14.5198 1.90894 14.6777C1.96174 14.8357 2.09905 14.9502 2.26385 14.9738C3.08182 15.0902 3.90488 14.8236 4.5006 14.2284C5.16406 13.5645 5.42586 12.5886 5.1834 11.6809L11.6809 5.18371L11.6813 5.18415C12.5902 5.42491 13.567 5.16226 14.2283 4.50094C14.8111 3.91814 15.09 3.08174 14.9742 2.26378Z" fill="white"/>
    <path d="M12.3634 9.72661C12.1553 9.72661 11.9412 9.75792 11.6897 9.82446L9.98642 8.1214L8.12158 9.98603L9.82458 11.6891C9.75805 11.941 9.72673 12.1552 9.72673 12.3633C9.72673 13.8173 10.9095 15 12.3634 15C13.8174 15 15.0002 13.8173 15.0002 12.3633C15.0002 10.9094 13.8174 9.72661 12.3634 9.72661ZM13.8054 12.2753L13.5441 13.2504C13.5033 13.4019 13.3848 13.5203 13.2334 13.5611L12.2583 13.8224C12.1151 13.8619 11.9496 13.8244 11.8339 13.7087L11.1202 12.995C11.0091 12.8839 10.9658 12.7221 11.0065 12.5706L11.2679 11.5956C11.3086 11.4441 11.4271 11.3256 11.5786 11.2849L12.5536 11.0235C12.7042 10.9815 12.8664 11.0261 12.978 11.1373L13.6917 11.8509C13.8028 11.9621 13.8462 12.1239 13.8054 12.2753Z" fill="white"/>
    <path d="M5.18354 3.29417C5.426 2.38652 5.16421 1.41021 4.50075 0.746719C3.50468 -0.248906 1.76703 -0.248906 0.771843 0.746719C-0.255979 1.77498 -0.255979 3.4478 0.771843 4.47563C1.43231 5.13609 2.41036 5.40173 3.31929 5.15842L5.015 6.87838L6.87951 5.01407L5.18354 3.29417ZM4.03425 2.47922L3.7729 3.45425C3.73212 3.60574 3.61367 3.72419 3.4622 3.76494L2.48717 4.0263C2.34394 4.06579 2.17844 4.02829 2.06275 3.91257L1.34908 3.1989C1.23793 3.08774 1.1946 2.92597 1.23535 2.77447L1.49671 1.79944C1.53749 1.64795 1.65593 1.5295 1.8074 1.48875L2.78243 1.22739C2.93392 1.1862 3.0957 1.22997 3.20685 1.34112L3.92052 2.0548C4.03168 2.16595 4.07501 2.32772 4.03425 2.47922Z" fill="white"/>
</svg>
